<?xml version="1.0" encoding="utf-8"?>
<!-- Generator: Adobe Illustrator 26.2.1, SVG Export Plug-In . SVG Version: 6.00 Build 0)  -->
<svg version="1.1" id="圖層_1" xmlns="http://www.w3.org/2000/svg" xmlns:xlink="http://www.w3.org/1999/xlink" x="0px" y="0px"
	 viewBox="0 0 571.3 732.7" style="enable-background:new 0 0 571.3 732.7;" xml:space="preserve">
<style type="text/css">
	.st0{fill:url(#SVGID_1_);}
	.st1{fill:url(#SVGID_00000181795614392417236250000012912187520446978744_);}
	.st2{display:none;fill:#F7F9F9;}
	.st3{fill:url(#SVGID_00000134933629290623308010000015535396025269265553_);}
	.st4{fill:url(#SVGID_00000140731856078207007850000012470951524144923830_);}
	.st5{fill:url(#SVGID_00000173134266391040332560000001869084258452286905_);}
	.st6{fill:url(#SVGID_00000064324424896837490660000013468469011342871987_);}
</style>
<g>
	
		<linearGradient id="SVGID_1_" gradientUnits="userSpaceOnUse" x1="299.224" y1="-26.0222" x2="485.6398" y2="95.3271" gradientTransform="matrix(1 0 0 1 0 118.9551)">
		<stop  offset="0" style="stop-color:#8D99D9"/>
		<stop  offset="1" style="stop-color:#AEBAFF"/>
	</linearGradient>
	<path class="st0" d="M474.5,244.2c-47.5-50.7-74.4-64.1-74.4-64.1c-73.4-48.2-153.1-31.1-153.1-31.1c22.1-22.4,52.3-41.2,93.8-50.4
		c0,0,110.3-36.6,226.3,94.9L474.5,244.2z"/>
	
		<linearGradient id="SVGID_00000045614352464319070400000014823833365815711142_" gradientUnits="userSpaceOnUse" x1="240.9626" y1="169.2496" x2="570.3221" y2="169.2496">
		<stop  offset="0" style="stop-color:#8D99D9"/>
		<stop  offset="1" style="stop-color:#AEBAFF"/>
	</linearGradient>
	<path style="fill:url(#SVGID_00000045614352464319070400000014823833365815711142_);" d="M378.3,93.8c42.1,0,114.3,15.1,188.8,99.6
		l-92.6,50.7c-47.5-50.7-74.4-64.1-74.4-64.1C357.2,151.9,312,146,282,146c-21.3,0-34.9,2.9-34.9,2.9c22.1-22.4,52.3-41.2,93.8-50.4
		C340.8,98.5,354.9,93.8,378.3,93.8 M378.3,91.8v2V91.8c-22.7,0-36.6,4.3-38,4.7c-37.9,8.5-69.8,25.7-94.7,51l-4.7,4.7l6.5-1.4
		c0.1,0,13.8-2.9,34.5-2.9c30,0,74.6,5.9,117,33.7l0.1,0.1l0.1,0.1c0.3,0.1,27.2,14,73.8,63.7l1.1,1.1l1.4-0.7l92.6-50.7l2.2-1.2
		l-1.7-1.9c-33.3-37.8-69.4-65.4-107.3-82C433.8,98,405.8,91.8,378.3,91.8L378.3,91.8z"/>
</g>
<rect x="864.7" y="360.5" class="st2" width="83.2" height="57.3"/>
<g>
	
		<linearGradient id="SVGID_00000124857163218406399320000002060046048147746973_" gradientUnits="userSpaceOnUse" x1="230.6312" y1="458.5027" x2="571.0393" y2="-63.308" gradientTransform="matrix(1 0 0 1 0 118.9551)">
		<stop  offset="2.552482e-03" style="stop-color:#BAFFFF"/>
		<stop  offset="0.4613" style="stop-color:#FADDFF"/>
		<stop  offset="1" style="stop-color:#FFCEFF"/>
	</linearGradient>
	<path style="fill:url(#SVGID_00000124857163218406399320000002060046048147746973_);" d="M496.8,674.2
		c-131.6,21.8-235.5-58.6-235.5-58.6c-114.5-87.5-148.4-210.8-148.4-210.8c-46.5-166,26.9-276.2,26.9-276.2
		C214.3,8.3,337.9,4.9,337.9,4.9C462.8-6.8,567.2,76.6,567.2,76.6v116.9c-116.1-131.6-226.3-95-226.3-95
		c-152.5,34.1-153.1,196.7-153.1,196.7C181.7,447.2,286,526,286,526c145.1,126.9,281.2,9.5,281.2,9.5V650
		C542.4,663.9,496.8,674.2,496.8,674.2z"/>
	
		<linearGradient id="SVGID_00000059271597503084487390000011479425083973670024_" gradientUnits="userSpaceOnUse" x1="221.1732" y1="592.2438" x2="561.9517" y2="69.8654">
		<stop  offset="2.552482e-03" style="stop-color:#BAFFFF"/>
		<stop  offset="0.4613" style="stop-color:#FADDFF"/>
		<stop  offset="1" style="stop-color:#FFCEFF"/>
	</linearGradient>
	<path style="fill:url(#SVGID_00000059271597503084487390000011479425083973670024_);" d="M362.3,3.8c113.8,0,204.9,72.8,204.9,72.8
		v116.9c-74.6-84.6-146.8-99.7-188.9-99.7c-23.4,0-37.4,4.7-37.4,4.7c-152.5,34.1-153.1,196.7-153.1,196.7
		C181.7,447.2,286,526,286,526c50.9,44.5,100.7,59,143.9,59c79.9,0,137.3-49.5,137.3-49.5V650c-24.8,13.9-70.4,24.2-70.4,24.2
		c-15.7,2.6-31.1,3.8-45.9,3.8c-109.1,0-189.7-62.4-189.7-62.4c-114.5-87.5-148.4-210.8-148.4-210.8
		c-46.5-166,26.9-276.2,26.9-276.2C214.3,8.3,337.9,4.9,337.9,4.9C346.2,4.2,354.3,3.8,362.3,3.8 M362.3,1.8
		c-8.2,0-16.5,0.4-24.5,1.1c-1.7,0.1-32.6,1.4-71.7,16.8c-23.5,9.3-45.5,21.8-65.1,37.1c-24.6,19.2-45.8,42.9-62.9,70.6
		c-0.7,1.1-18.8,29.1-31.1,76.4c-7.3,28.2-11.2,57.7-11.5,87.6c-0.4,37.4,4.8,75.7,15.5,113.7c0.1,0.3,8.8,31.5,31.4,73
		c13.3,24.4,28.7,47.5,45.8,68.7c21.4,26.5,45.6,50.1,71.8,70.2c0.2,0.1,20.7,15.9,54.3,31.4c31,14.3,79.9,31.4,136.6,31.4
		c15.5,0,31.1-1.3,46.2-3.8l0.1,0l0.1,0c1.9-0.4,46.2-10.5,71-24.4l1-0.6V650V535.5v-4.4l-3.3,2.8c-0.1,0.1-14.5,12.4-38.4,24.5
		c-22,11.2-56.8,24.5-97.6,24.5c-50.3,0-98.2-19.7-142.6-58.5l-0.1,0l-0.1,0c-0.3-0.2-26.2-20-51-58c-14.6-22.3-25.9-46.4-33.7-71.7
		c-9.8-31.6-14-65-12.7-99.4l0,0l0,0c0-0.4,0.4-40.9,19.2-84.9c11-25.8,26.2-47.8,45-65.3c23.5-21.9,52.9-36.9,87.3-44.6l0.1,0
		l0.1,0c0.1,0,14.1-4.6,36.8-4.6c26.9,0,54.3,6,81.4,18c37.3,16.4,73,43.7,106,81l3.5,4v-5.3V76.6v-1l-0.8-0.6
		c-0.2-0.2-23.4-18.5-60.1-36.6c-21.6-10.6-43.6-19.1-65.4-25.1C415.5,5.6,388.4,1.8,362.3,1.8L362.3,1.8z"/>
</g>
<g>
	
		<linearGradient id="SVGID_00000020390798251992239240000000930151780060273850_" gradientUnits="userSpaceOnUse" x1="4.323" y1="265.5421" x2="567.1674" y2="265.5421" gradientTransform="matrix(1 0 0 1 0 118.9551)">
		<stop  offset="0" style="stop-color:#8D99D9"/>
		<stop  offset="1" style="stop-color:#AEBAFF"/>
	</linearGradient>
	<path style="fill:url(#SVGID_00000020390798251992239240000000930151780060273850_);" d="M546.2,661.3l-3,1.7l-63.7,34.9
		c0,0-93.5,59.9-223,12.6c0,0-152.9-47.3-225-225c0,0-73.3-164.3,21-314.3c0,0,23.2-35.3,57.6-62.4c0,0,17.6-17.1,117.7-67.9
		c5.2-2.6-9.9,6.2-14.8,9.7c-25.7,18-51.5,43.1-73.2,78c0,0-73.4,110.3-26.9,276.2c0,0,33.9,123.4,148.4,210.9
		c0,0,103.9,80.4,235.5,58.6c0,0,45.7-10.2,70.4-24.2L546.2,661.3z"/>
	
		<linearGradient id="SVGID_00000049180456742549654260000004535837566757925248_" gradientUnits="userSpaceOnUse" x1="4.3231" y1="384.4972" x2="567.1674" y2="384.4972">
		<stop  offset="0" style="stop-color:#8D99D9"/>
		<stop  offset="1" style="stop-color:#AEBAFF"/>
	</linearGradient>
	<path style="fill:url(#SVGID_00000049180456742549654260000004535837566757925248_);" d="M211.4,50.3
		c-28.7,20.3-53.1,46.4-72.5,77.6c-0.2,0.3-18.6,28.3-31,76.2c-7.3,28.1-11.1,57.5-11.4,87.4c-0.4,37.3,4.8,75.5,15.5,113.4
		c0.1,0.3,8.8,31.4,31.3,72.8c13.3,24.3,28.6,47.4,45.7,68.5c21.4,26.5,45.5,50,71.6,70c0.2,0.2,20.6,15.8,54.2,31.3
		c30.9,14.3,79.7,31.3,136.2,31.3c15.4,0,30.9-1.3,45.9-3.8l0.1,0c0.3-0.1,24.6-5.6,47.2-13.9l-1.5,0.8L479,697l-0.1,0
		c-0.1,0.1-12.2,7.7-33.2,15.3c-19.4,7-50.6,15.3-89.1,15.3c-33.2,0-66.8-6.1-99.7-18.1l0,0c-0.4-0.1-38.7-12.2-85.3-45.8
		c-27.4-19.7-52.2-42.9-73.8-68.8c-27-32.5-49-69.4-65.4-109.8c-0.2-0.4-18.3-41.6-24.8-100.6c-3.8-34.6-2.9-68.5,2.8-100.7
		c7-40.2,21.5-77.9,42.9-112c0.2-0.4,23.5-35.5,57.3-62.2l0.1-0.1C110.9,109.3,127.5,93.8,211.4,50.3 M228.7,40.3
		c-0.1,0-0.4,0.1-1,0.5C127.7,91.6,110,108.7,110,108.7c-34.3,27.1-57.6,62.4-57.6,62.4c-94.3,150-21,314.3-21,314.3
		c72.1,177.7,225,225,225,225c36.7,13.4,70.5,18.2,100.1,18.2c74.9,0,122.9-30.8,122.9-30.8l63.7-34.9l3-1.7l18-9.7
		c-25.3,13.1-67.4,22.5-67.4,22.5c-15.7,2.6-31,3.7-45.8,3.7c-109.1,0-189.8-62.4-189.8-62.4c-114.5-87.5-148.4-210.9-148.4-210.9
		c-46.5-165.9,26.9-276.2,26.9-276.2c21.7-34.9,47.5-60,73.2-78C217.2,47.4,229.2,40.3,228.7,40.3L228.7,40.3z M567.2,650l-3,1.6
		C565.2,651.1,566.2,650.6,567.2,650L567.2,650z"/>
</g>
</svg>
