<?xml version="1.0" encoding="utf-8"?>
<!-- Generator: Adobe Illustrator 24.1.3, SVG Export Plug-In . SVG Version: 6.00 Build 0)  -->
<svg version="1.1" id="圖層_1" xmlns="http://www.w3.org/2000/svg" xmlns:xlink="http://www.w3.org/1999/xlink" x="0px" y="0px"
	 viewBox="0 0 778 998.9" style="enable-background:new 0 0 778 998.9;" xml:space="preserve">
<style type="text/css">
	.st0{display:none;fill:#F7F9F9;}
</style>
<rect x="860.3" y="630.7" class="st0" width="83.2" height="57.3"/>
<g>
	<path d="M492.7,1001.3c-11,0-22.1-0.5-33.3-1.5c-2.3-0.1-44.8-1.9-98.8-23.2c-32.4-12.8-62.6-30-89.7-51.1
		c-33.9-26.4-63-59.1-86.6-97.2c-0.2-0.3-25.6-39-42.8-105.2c-10.1-38.8-15.4-79.4-15.8-120.7c-0.5-51.5,6.6-104.2,21.3-156.6
		c0.1-0.4,12.1-43.4,43.3-100.5c28.8-52.7,80.2-128.7,162-191.2c0.3-0.3,36.7-28.2,94.8-52c34.1-14,69-23.9,103.6-29.3
		c43.3-6.9,86.4-6.8,128,0.1l0.1,0c2.6,0.6,63.7,14.4,97.7,33.6l1.3,0.7v164.7l-4.1-3.6c-0.5-0.4-47.4-40.3-117.9-58.5
		c-41.3-10.7-82.6-11.9-122.6-3.6c-50.1,10.3-98.4,35.6-143.6,75.2l-0.1,0.1c-0.4,0.3-36.1,27.6-70.3,80
		c-20.1,30.7-35.7,64-46.5,98.8c-13.5,43.5-19.3,89.6-17.4,137c0,0.6,0.5,56.4,26.5,117.2c15.2,35.6,36.1,65.9,62.1,90
		c32.4,30.2,72.9,50.9,120.4,61.5l0.2,0.1c0.4,0.1,38.3,12.3,95,2.4c33.3-5.8,66.6-18,98.8-36.3c40.3-22.8,79.1-55.2,115.4-96.3
		l4.4-5v168.9l-0.9,0.8c-0.4,0.3-36.8,29.2-93.9,55.7C636.9,977.7,568.8,1001.3,492.7,1001.3z M615.1,72.6c-21,0-42.2,1.7-63.5,5
		c-34.2,5.4-68.7,15.2-102.4,29c-57.5,23.6-93.5,51.1-93.8,51.4C274.3,220,223.2,295.3,194.7,347.5c-30.9,56.7-42.8,99.2-42.9,99.6
		c-14.5,51.9-21.6,104.1-21.1,155.1c0.4,40.8,5.6,81,15.6,119.4c16.9,65.4,42,103.6,42.2,104c23.3,37.6,52,69.8,85.4,95.8
		c26.7,20.8,56.4,37.8,88.4,50.4c54.4,21.5,96.9,22.9,97.3,22.9l0.2,0c48.7,4.6,126.7,0.8,221.1-43.1c51.5-23.9,85.9-49.7,92-54.4
		V744.1c-35.4,39.2-73.2,70.4-112.5,92.6c-32.7,18.5-66.6,30.9-100.5,36.8c-56.8,9.9-94.2-1.7-97-2.6
		c-48.3-10.8-89.6-31.9-122.6-62.8c-26.5-24.7-47.7-55.6-63.2-91.8c-26.4-61.6-26.9-118.3-26.9-118.8c-1.9-48,4-94.7,17.7-138.8
		c10.9-35.3,26.8-68.9,47.2-100.1c33.9-51.9,69.4-79.5,71.3-81c45.9-40.1,95-65.8,145.9-76.3c40.8-8.4,82.8-7.2,124.9,3.7
		c59.6,15.4,102.6,46.1,115.6,56.2V110.1c-33.2-18.2-92.7-31.8-95-32.3C657.2,74.3,636.3,72.6,615.1,72.6z"/>
</g>
<g>
	<path d="M514.9,877.4c-31,0-50.1-5.9-52.1-6.6c-52.2-11.7-96-35.3-130.3-70.2l-5.8-5.9l8.1,1.7c0.3,0.1,27.7,5.8,67,3.4
		c36.2-2.2,90.3-12,142-45.9l0.3-0.1c0.4-0.2,37.5-19.2,101.8-87.8l1.3-1.4l132,72.3l-2.1,2.3c-36.7,41.5-76,74.3-116.8,97.4
		c-32.7,18.5-66.6,30.9-100.5,36.8C543,876.3,527.9,877.4,514.9,877.4z M341.7,802.7c32.7,31.1,73.9,52.4,122.3,63.3l0.2,0.1
		c0.4,0.1,38.3,12.3,95,2.4c33.3-5.8,66.6-18,98.8-36.2c39.5-22.4,77.6-54,113.3-93.9l-123.2-67.5c-62.9,66.8-98.9,85.9-101.7,87.3
		c-52.7,34.5-107.6,44.4-144.5,46.7C374.5,806.5,352.8,804.3,341.7,802.7z"/>
</g>
<g>
	<path d="M309.2,951c-1,0-2-0.5-2.8-0.9c-133.6-67.9-160.6-92-162.6-93.9c-47-37.1-79.4-86-79.7-86.5
		c-29.8-47.5-49.9-99.9-59.7-155.8c-7.8-44.7-9.1-91.8-3.9-139.9c9-81.9,34.2-139.2,34.5-139.7c22.7-56,53.2-107.3,90.7-152.3
		c30-36,64.4-68.2,102.4-95.5c63.6-45.8,116.2-62.8,118.4-63.5C387.4,8,429.1-0.4,470.5-2c33.1-1.3,66,1.8,97.9,9.1
		c53,12.1,85.6,32.2,87.4,33.4l91.8,50.4l24.7,13.3c1.5,0.8,2.9,1.5,4.3,2.3l-2.4,4.4l-4.1-2.2c-33.6-17.4-89.9-30.3-92.2-30.8
		c-41-6.8-83.5-6.8-126.2,0c-34.2,5.4-68.7,15.2-102.4,29c-57.5,23.5-93.5,51.1-93.8,51.4C274.3,220,223.2,295.3,194.7,347.6
		c-30.9,56.7-42.8,99.2-42.9,99.7c-14.5,51.9-21.7,104-21.2,155c0.4,40.8,5.6,81,15.6,119.4c16.9,65.5,42,103.6,42.3,104
		c26.8,43.1,60.5,79.1,100.2,106.8c3.1,2.2,9.3,6,14.2,9.1c2.1,1.3,4,2.5,5.4,3.3c2.4,1.5,4.2,2.7,3,4.8
		C310.7,950.7,310,951,309.2,951z M485.1,2.7c-4.9,0-9.7,0.1-14.6,0.3c-40.8,1.6-82,9.9-122.4,24.6l-0.1,0
		c-0.5,0.2-53.2,16.8-117.2,63c-37.6,27.1-71.7,58.9-101.4,94.6c-37.1,44.6-67.3,95.4-89.8,150.9c-0.3,0.6-25.3,57.4-34.1,138.5
		c-5.2,47.6-3.9,94.2,3.9,138.4c9.7,55.2,29.5,107,59,153.9c0.3,0.4,32.3,48.8,78.7,85.4l0.2,0.2c0.2,0.2,21.4,20,125.6,74.7
		c-34.7-26.7-64.4-59.8-88.6-98.8c-0.2-0.3-25.7-39-42.8-105.2c-10.1-38.8-15.4-79.4-15.8-120.7c-0.5-51.5,6.7-104.2,21.4-156.6
		c0.1-0.4,12.1-43.4,43.3-100.6c28.8-52.7,80.2-128.7,162-191.2c0.3-0.3,36.7-28.2,94.8-52c34.1-14,69-23.8,103.6-29.3
		c43.3-6.9,86.4-6.9,128,0l0.1,0c1.6,0.4,25.9,5.9,52.2,14.6l-77.9-42.7c-0.3-0.2-32.6-20.6-86.1-32.8
		C540.3,5.8,512.8,2.7,485.1,2.7z"/>
</g>
</svg>
