<?xml version="1.0" encoding="utf-8"?>
<!-- Generator: Adobe Illustrator 24.1.3, SVG Export Plug-In . SVG Version: 6.00 Build 0)  -->
<svg version="1.1" id="圖層_1" xmlns="http://www.w3.org/2000/svg" xmlns:xlink="http://www.w3.org/1999/xlink" x="0px" y="0px"
	 viewBox="0 0 775.3 998.9" style="enable-background:new 0 0 775.3 998.9;" xml:space="preserve">
<style type="text/css">
	.st0{display:none;fill:#F7F9F9;}
	.st1{fill:none;stroke:#000000;stroke-width:5;stroke-miterlimit:10;}
	.st2{fill:url(#SVGID_1_);stroke:#000000;stroke-width:5;stroke-miterlimit:10;}
	.st3{fill:url(#SVGID_2_);stroke:#000000;stroke-width:5;stroke-miterlimit:10;}
	.st4{fill:url(#SVGID_3_);stroke:#000000;stroke-width:5;stroke-miterlimit:10;}
</style>
<rect x="860.3" y="630.7" class="st0" width="83.2" height="57.3"/>
<path class="st1" d="M775.3,108.6v157.8c0,0-187.5-161.7-387.4,13.1c0,0-143.7,108.5-135.3,317.9c0,0,0.8,224,210.9,271
	c0,0,151.8,50.4,311.8-130.9v161.1c0,0-143.8,114.9-315.8,98.7c0,0-170.3-4.6-273.1-170.3c0,0-101-151.8-37-380.5
	c0,0,46.7-169.9,204.4-290.4c0,0,143.2-110.9,324.5-80.8C678.3,75.3,741.2,89.4,775.3,108.6z"/>
<path class="st1" d="M647.1,38.7v157.8c0,0-187.5-161.7-387.4,13.1c0,0-143.7,108.5-135.3,317.9c0,0,0.8,224,210.9,271
	c0,0,151.8,50.4,311.8-130.9v161.1c0,0-143.8,114.9-315.8,98.7c0,0-170.3-4.6-273.1-170.3c0,0-101-151.8-37-380.5
	c0,0,46.7-169.9,204.4-290.4c0,0,143.2-110.9,324.5-80.8C550.1,5.4,613,19.5,647.1,38.7z"/>
<line class="st1" x1="647.1" y1="38.7" x2="775.3" y2="108.6"/>
<line class="st1" x1="647.1" y1="196.5" x2="775.3" y2="266.4"/>
<linearGradient id="SVGID_1_" gradientUnits="userSpaceOnUse" x1="656.1779" y1="666.6375" x2="748.6203" y2="726.8139">
	<stop  offset="0" style="stop-color:#8D99D9"/>
	<stop  offset="1" style="stop-color:#AEBAFF"/>
</linearGradient>
<line class="st2" x1="647.7" y1="667.7" x2="775.3" y2="737.6"/>
<linearGradient id="SVGID_2_" gradientUnits="userSpaceOnUse" x1="655.7224" y1="827.519" x2="748.4626" y2="887.8893">
	<stop  offset="0" style="stop-color:#8D99D9"/>
	<stop  offset="1" style="stop-color:#AEBAFF"/>
</linearGradient>
<line class="st3" x1="647.1" y1="828.7" x2="775.3" y2="898.6"/>
<linearGradient id="SVGID_3_" gradientUnits="userSpaceOnUse" x1="209.4768" y1="885.6534" x2="325.9149" y2="961.4501">
	<stop  offset="0" style="stop-color:#8D99D9"/>
	<stop  offset="1" style="stop-color:#AEBAFF"/>
</linearGradient>
<line class="st4" x1="198" y1="888.2" x2="360.3" y2="973.8"/>
</svg>
