<?xml version="1.0" encoding="utf-8"?>
<!-- Generator: Adobe Illustrator 26.2.1, SVG Export Plug-In . SVG Version: 6.00 Build 0)  -->
<svg version="1.1" id="圖層_1" xmlns="http://www.w3.org/2000/svg" xmlns:xlink="http://www.w3.org/1999/xlink" x="0px" y="0px"
	 viewBox="0 0 400 609" style="enable-background:new 0 0 400 609;" xml:space="preserve">
<style type="text/css">
	.st0{display:none;fill:#F7F9F9;}
</style>
<rect x="671.3" y="435.8" class="st0" width="83.2" height="57.3"/>
<g>
	<path d="M252.9,515.3c-5.7,0-11.4-0.3-17.1-0.8c-1.2,0-23-1-50.7-11.9c-16.6-6.6-32.1-15.4-46.1-26.2
		c-17.4-13.6-32.3-30.3-44.5-49.9c-0.1-0.2-13.1-20-22-54c-5.2-19.9-7.9-40.8-8.1-62c-0.3-26.4,3.4-53.5,10.9-80.4
		c0-0.2,6.2-22.3,22.2-51.6c14.8-27.1,41.2-66.1,83.2-98.2c0.2-0.2,18.8-14.5,48.7-26.7c17.5-7.2,35.4-12.3,53.2-15
		c22.2-3.5,44.4-3.5,65.7,0h0c1.3,0.3,32.7,7.4,50.2,17.3l0.7,0.4v84.6l-2.1-1.9c-0.3-0.2-24.3-20.7-60.5-30
		c-21.2-5.5-42.4-6.1-62.9-1.9c-25.7,5.3-50.5,18.3-73.7,38.6l0,0c-0.2,0.2-18.5,14.2-36.1,41.1c-10.3,15.8-18.3,32.9-23.9,50.7
		c-6.9,22.3-9.9,46-8.9,70.3c0,0.3,0.3,29,13.6,60.2c7.8,18.3,18.5,33.8,31.9,46.2c16.6,15.5,37.4,26.1,61.8,31.6l0.1,0
		c0.2,0,19.7,6.3,48.8,1.2c17.1-3,34.2-9.2,50.7-18.6c20.7-11.7,40.6-28.3,59.3-49.4l2.3-2.6v86.7l-0.5,0.4
		c-0.2,0.2-18.9,15-48.2,28.6C326.9,503.2,292,515.3,252.9,515.3z M315.7,38.5c-10.8,0-21.7,0.9-32.6,2.6
		c-17.6,2.8-35.3,7.8-52.6,14.9c-29.5,12.1-48,26.2-48.2,26.4c-41.6,31.8-67.9,70.5-82.5,97.3c-15.9,29.1-22,50.9-22,51.1
		c-7.4,26.6-11.1,53.4-10.8,79.6c0.2,20.9,2.9,41.6,8,61.3c8.7,33.6,21.6,53.2,21.7,53.4c12,19.3,26.7,35.8,43.9,49.2
		c13.7,10.7,29,19.4,45.4,25.9c27.9,11,49.8,11.8,50,11.8h0.1c25,2.4,65.1,0.4,113.5-22.1c26.4-12.3,44.1-25.5,47.2-27.9v-78.6
		c-18.2,20.1-37.6,36.1-57.8,47.5c-16.8,9.5-34.2,15.9-51.6,18.9c-29.2,5.1-48.4-0.9-49.8-1.3c-24.8-5.5-46-16.4-62.9-32.2
		c-13.6-12.7-24.5-28.5-32.5-47.1c-13.6-31.6-13.8-60.7-13.8-61c-1-24.6,2.1-48.6,9.1-71.3c5.6-18.1,13.8-35.4,24.2-51.4
		c17.4-26.6,35.6-40.8,36.6-41.6c23.6-20.6,48.8-33.8,74.9-39.2c20.9-4.3,42.5-3.7,64.1,1.9c30.6,7.9,52.7,23.7,59.4,28.9V57.7
		c-17.1-9.3-47.6-16.3-48.8-16.6C337.4,39.3,326.6,38.5,315.7,38.5z"/>
</g>
<g>
	<path d="M264.3,451.7c-15.9,0-25.7-3-26.8-3.4c-26.8-6-49.3-18.1-66.9-36l-3-3l4.2,0.9c0.2,0,14.2,3,34.4,1.7
		c18.6-1.1,46.4-6.2,72.9-23.6l0.2,0c0.2-0.1,19.3-9.9,52.3-45.1l0.7-0.7l67.8,37.1l-1.1,1.2c-18.8,21.3-39,38.2-60,50
		c-16.8,9.5-34.2,15.9-51.6,18.9C278.7,451.1,271,451.7,264.3,451.7z M175.4,413.4c16.8,16,37.9,26.9,62.8,32.5l0.1,0
		c0.2,0,19.7,6.3,48.8,1.2c17.1-3,34.2-9.2,50.7-18.6c20.3-11.5,39.8-27.7,58.2-48.2l-63.3-34.7c-32.3,34.3-50.8,44.1-52.2,44.8
		c-27.1,17.7-55.3,22.8-74.2,24C192.2,415.3,181.1,414.2,175.4,413.4z"/>
</g>
<g>
	<path d="M158.7,489.5c-0.5,0-1-0.3-1.4-0.5c-68.6-34.9-82.5-47.2-83.5-48.2c-24.1-19-40.8-44.2-40.9-44.4
		c-15.3-24.4-25.6-51.3-30.6-80c-4-23-4.7-47.1-2-71.8c4.6-42,17.6-71.5,17.7-71.7c11.7-28.8,27.3-55.1,46.6-78.2
		c15.4-18.5,33.1-35,52.6-49c32.7-23.5,59.7-32.2,60.8-32.6c21-7.7,42.4-12,63.7-12.8c17-0.7,33.9,0.9,50.3,4.7
		C319,11,335.7,21.4,336.6,22l47.1,25.9l12.7,6.8c0.8,0.4,1.5,0.8,2.2,1.2l-1.2,2.3l-2.1-1.1c-17.3-8.9-46.2-15.6-47.3-15.8
		c-21.1-3.5-42.9-3.5-64.8,0c-17.6,2.8-35.3,7.8-52.6,14.9c-29.5,12.1-48,26.2-48.2,26.4c-41.7,31.7-67.9,70.3-82.6,97.2
		c-15.9,29.1-22,50.9-22,51.2c-7.4,26.6-11.1,53.4-10.9,79.6c0.2,20.9,2.9,41.6,8,61.3c8.7,33.6,21.6,53.2,21.7,53.4
		c13.8,22.1,31.1,40.6,51.5,54.8c1.6,1.1,4.8,3.1,7.3,4.7c1.1,0.7,2.1,1.3,2.8,1.7c1.2,0.8,2.2,1.4,1.5,2.5
		C159.4,489.3,159.1,489.5,158.7,489.5z M249,2.6c-2.5,0-5,0-7.5,0.2c-20.9,0.8-42.1,5.1-62.9,12.6h0c-0.3,0.1-27.3,8.6-60.2,32.3
		C99.1,61.6,81.6,78,66.4,96.3c-19,22.9-34.6,49-46.1,77.5c-0.2,0.3-13,29.5-17.5,71.1c-2.7,24.4-2,48.4,2,71.1
		c5,28.3,15.2,54.9,30.3,79c0.2,0.2,16.6,25.1,40.4,43.9l0.1,0.1c0.1,0.1,11,10.3,64.5,38.4c-17.8-13.7-33.1-30.7-45.5-50.7
		c-0.1-0.2-13.2-20-22-54c-5.2-19.9-7.9-40.8-8.1-62c-0.3-26.4,3.4-53.5,11-80.4c0-0.2,6.2-22.3,22.2-51.7
		c14.8-27.1,41.2-66.1,83.2-98.2c0.2-0.2,18.8-14.5,48.7-26.7c17.5-7.2,35.4-12.2,53.2-15c22.2-3.5,44.4-3.5,65.7,0h0
		c0.8,0.2,13.3,3,26.8,7.5l-40-21.9c-0.2-0.1-16.7-10.6-44.2-16.8C277.3,4.2,263.2,2.6,249,2.6z"/>
</g>
</svg>
