<?xml version="1.0" encoding="utf-8"?>
<!-- Generator: Adobe Illustrator 26.2.1, SVG Export Plug-In . SVG Version: 6.00 Build 0)  -->
<svg version="1.1" id="圖層_1" xmlns="http://www.w3.org/2000/svg" xmlns:xlink="http://www.w3.org/1999/xlink" x="0px" y="0px"
	 viewBox="0 0 221.8 221.8" style="enable-background:new 0 0 221.8 221.8;" xml:space="preserve">
<style type="text/css">
	.st0{fill:#390000;}
	.st1{fill:#FF9400;}
</style>
<path class="st0" d="M184.4,221.8H37.4C16.7,221.8,0,205.1,0,184.4V37.4C0,16.7,16.7,0,37.4,0h147.1c20.6,0,37.4,16.7,37.4,37.4
	v147.1C221.8,205.1,205.1,221.8,184.4,221.8z"/>
<g>
	<path class="st1" d="M104.4,64.8H78.1v8.3l-31.9,91.1h20.3l7.6-23.3h35.2l7.6,23.3h23.3L104.4,64.8z M80.5,121.7l10.3-34.6v-4.3
		l12.6,38.9H80.5z"/>
	<rect x="149.3" y="88.8" class="st1" width="21.3" height="75.5"/>
	<circle class="st1" cx="159.9" cy="69.2" r="11.6"/>
</g>
</svg>
