<?xml version="1.0" encoding="utf-8"?>
<!-- Generator: Adobe Illustrator 26.2.1, SVG Export Plug-In . SVG Version: 6.00 Build 0)  -->
<svg version="1.1" id="圖層_1" xmlns="http://www.w3.org/2000/svg" xmlns:xlink="http://www.w3.org/1999/xlink" x="0px" y="0px"
	 viewBox="0 0 938 225.3" style="enable-background:new 0 0 938 225.3;" xml:space="preserve">
<style type="text/css">
	.st0{fill:#FFFFFF;}
</style>
<g>
	<path class="st0" d="M147.5,62.6c-2.8-4.5-6.3-8.5-10.6-11.9c-4.2-3.4-9-6.1-14.3-8c-5.3-1.9-10.9-2.9-16.7-2.9
		c-10.7,0-19.7,2.1-27.1,6.2c-7.4,4.1-13.5,9.7-18.1,16.6c-4.6,6.9-8,14.8-10.1,23.7c-2.1,8.9-3.2,18-3.2,27.4
		c0,9,1.1,17.8,3.2,26.4c2.1,8.5,5.5,16.2,10.1,23.1c4.6,6.8,10.7,12.3,18.1,16.4c7.4,4.1,16.5,6.2,27.1,6.2
		c14.5,0,25.8-4.4,33.9-13.3c8.1-8.8,13.1-20.5,14.9-35h45.8c-1.2,13.5-4.3,25.6-9.3,36.5c-5,10.9-11.7,20.1-19.9,27.7
		c-8.2,7.6-17.9,13.5-29,17.5c-11.1,4-23.2,6-36.5,6c-16.5,0-31.3-2.9-44.5-8.6C48.2,211,37.1,203.1,28,193
		c-9-10.1-16-21.9-20.8-35.4S0,129.4,0,113.7c0-16.1,2.4-31,7.2-44.8C12.1,55.1,19,43.1,28,32.9c9-10.3,20.2-18.3,33.3-24.1
		C74.5,2.9,89.4,0,105.9,0c11.9,0,23.1,1.7,33.6,5.1c10.6,3.4,20,8.4,28.4,14.9c8.3,6.5,15.2,14.6,20.7,24.3
		c5.4,9.7,8.8,20.7,10.3,33.2h-45.8C152.1,72.1,150.3,67.1,147.5,62.6z"/>
	<path class="st0" d="M301.3,5.1v81.1h0.9c5.4-9,12.4-15.6,20.8-19.8c8.4-4.1,16.7-6.2,24.7-6.2c11.5,0,20.9,1.6,28.2,4.7
		c7.3,3.1,13.1,7.4,17.3,13c4.2,5.5,7.2,12.3,8.9,20.2c1.7,7.9,2.6,16.7,2.6,26.4v95.9h-42.8v-88.1c0-12.9-2-22.5-6-28.8
		c-4-6.3-11.2-9.5-21.4-9.5c-11.7,0-20.1,3.5-25.3,10.4c-5.2,6.9-7.8,18.4-7.8,34.2v81.7h-42.8V5.1H301.3z"/>
	<path class="st0" d="M511.5,5.1v215.3h-42.8V5.1H511.5z"/>
	<path class="st0" d="M576.4,108.7c3.8-10.2,9.2-18.8,16.3-25.9c7-7.1,15.5-12.7,25.3-16.6c9.8-3.9,20.9-5.9,33.2-5.9
		c12.3,0,23.4,2,33.3,5.9s18.4,9.5,25.5,16.6c7,7.1,12.5,15.8,16.3,25.9c3.8,10.2,5.7,21.5,5.7,33.9c0,12.5-1.9,23.7-5.7,33.8
		c-3.8,10.1-9.2,18.7-16.3,25.8c-7,7.1-15.5,12.6-25.5,16.4s-21.1,5.7-33.3,5.7c-12.3,0-23.3-1.9-33.2-5.7
		c-9.9-3.8-18.3-9.3-25.3-16.4c-7-7.1-12.5-15.7-16.3-25.8c-3.8-10.1-5.7-21.3-5.7-33.8C570.6,130.2,572.5,118.9,576.4,108.7z
		 M615.3,160.9c1.2,5.9,3.3,11.3,6.2,16c2.9,4.7,6.8,8.5,11.6,11.3c4.8,2.8,10.9,4.2,18.1,4.2c7.2,0,13.3-1.4,18.2-4.2
		c4.9-2.8,8.8-6.6,11.8-11.3c2.9-4.7,5-10.1,6.2-16c1.2-5.9,1.8-12,1.8-18.2c0-6.2-0.6-12.4-1.8-18.4c-1.2-6-3.3-11.4-6.2-16
		c-2.9-4.6-6.8-8.4-11.8-11.3c-4.9-2.9-11-4.4-18.2-4.4c-7.2,0-13.3,1.5-18.1,4.4c-4.8,2.9-8.7,6.7-11.6,11.3c-2.9,4.6-5,10-6.2,16
		c-1.2,6-1.8,12.2-1.8,18.4C613.5,148.9,614.1,155,615.3,160.9z"/>
	<path class="st0" d="M835.8,183.1c6.4,6.2,15.7,9.3,27.7,9.3c8.6,0,16.1-2.2,22.3-6.5c6.2-4.3,10.1-8.9,11.5-13.7H935
		c-6,18.7-15.3,32.1-27.7,40.1c-12.5,8-27.5,12.1-45.2,12.1c-12.3,0-23.3-2-33.2-5.9c-9.9-3.9-18.2-9.5-25-16.7
		c-6.8-7.2-12.1-15.9-15.8-25.9c-3.7-10.1-5.6-21.1-5.6-33.2c0-11.7,1.9-22.5,5.7-32.6c3.8-10.1,9.2-18.7,16.3-26.1
		c7-7.3,15.4-13.1,25.2-17.3c9.8-4.2,20.6-6.3,32.4-6.3c13.3,0,24.8,2.6,34.7,7.7c9.8,5.1,17.9,12,24.3,20.7
		c6.3,8.6,10.9,18.5,13.7,29.6c2.8,11.1,3.8,22.6,3,34.7H825.2C825.8,166.8,829.3,176.8,835.8,183.1z M884.2,101
		c-5.1-5.6-12.9-8.4-23.4-8.4c-6.8,0-12.5,1.2-17,3.5c-4.5,2.3-8.1,5.2-10.9,8.6c-2.7,3.4-4.6,7-5.7,10.9c-1.1,3.8-1.8,7.2-2,10.3
		h69.7C892.9,114.9,889.3,106.7,884.2,101z"/>
</g>
</svg>
