<?xml version="1.0" encoding="utf-8"?>
<!-- Generator: Adobe Illustrator 26.2.1, SVG Export Plug-In . SVG Version: 6.00 Build 0)  -->
<svg version="1.1" id="圖層_1" xmlns="http://www.w3.org/2000/svg" xmlns:xlink="http://www.w3.org/1999/xlink" x="0px" y="0px"
	 viewBox="0 0 221.8 221.8" style="enable-background:new 0 0 221.8 221.8;" xml:space="preserve">
<style type="text/css">
	.st0{fill:#001E38;}
	.st1{fill:#00AAFF;}
</style>
<path class="st0" d="M184.4,221.8H37.4C16.7,221.8,0,205.1,0,184.4V37.4C0,16.7,16.7,0,37.4,0h147.1c20.6,0,37.4,16.7,37.4,37.4
	v147.1C221.8,205.1,205.1,221.8,184.4,221.8z"/>
<g>
	<path class="st1" d="M78.4,59.7H42.5V160h20.8v-32.1h19.3c0,0,31.6-1.8,31.6-35.4C114.2,92.5,114.2,59.7,78.4,59.7z M78.4,109.8
		H63.5V78h14.9c14.9,0,15,15.9,15,15.9C93.4,109,78.4,109.8,78.4,109.8z"/>
	<path class="st1" d="M175.5,86.8v18.3c0,0-13.6-7.1-25.1-5c0,0-10.8,3-4,8.1c0,0,6,4.3,18.5,8.8c0,0,15.5,6,14.3,22.4
		c0,0,0.2,22.3-31.8,22.4c0,0-12.3,1.3-23.4-5.2V138c0,0,10.3,6.9,24.6,6.2c0,0,16-1.7,7.8-8.3c0,0-1.9-1.2-13.1-6
		c0,0-19-8.1-19.3-24.9c0,0-0.2-17,21.8-21.9C145.8,83,163.4,80,175.5,86.8z"/>
</g>
</svg>
